# xmcd CD database file
#
# Track frame offsets:
#	150
#	26325
#	46889
#	68251
#	104588
#	121891
#	142918
#	164373
#	185259
#	206376
#	238278
#	254686
#	274158
#
# Disc length: 4115 seconds
#
# Revision: 0
# Processed by: cddbd v1.5.2PL0 Copyright (c) Steve Scherf et al.
# Submitted via: CDex 1.51
#
DISCID=b210110d
DTITLE=Glauco Venier - Intermezzo
DYEAR=2007
DGENRE=Jazz
TTITLE0=Another Being
TTITLE1=Petite Ouverture A Danser
TTITLE2=Lullaby For Elettra
TTITLE3=Rabbit's Happiness
TTITLE4=Il sogno di Mia Nonna
TTITLE5=C.E.U.P.S.
TTITLE6=Interrmezzo Sinfonico
TTITLE7=O Staimi Atenz
TTITLE8=Francesca Da Ischia
TTITLE9=Prejera Par Tualias
TTITLE10=Untold Apology
TTITLE11=Schonried
TTITLE12=Humming Chorus
EXTD=YEAR: 2007
EXTT0=
EXTT1=
EXTT2=
EXTT3=
EXTT4=
EXTT5=
EXTT6=
EXTT7=
EXTT8=
EXTT9=
EXTT10=
EXTT11=
EXTT12=
PLAYORDER=
